<mxfile host="Electron" agent="Mozilla/5.0 (Windows NT 10.0; Win64; x64) AppleWebKit/537.36 (KHTML, like Gecko) draw.io/26.0.9 Chrome/128.0.6613.186 Electron/32.2.5 Safari/537.36" version="26.0.9" pages="4">
  <diagram id="N0T3FDUk33J9Olfhj91r" name="Page-2">
    <mxGraphModel dx="864" dy="556" grid="1" gridSize="10" guides="1" tooltips="1" connect="1" arrows="1" fold="1" page="1" pageScale="1" pageWidth="850" pageHeight="1100" math="0" shadow="0">
      <root>
        <mxCell id="0" />
        <mxCell id="1" parent="0" />
        <mxCell id="JEYY5C1yVXIsMTf-1X0e-1" value="Recruiter Uploads Job Description" style="whiteSpace=wrap;strokeWidth=2;" parent="1" vertex="1">
          <mxGeometry x="269" y="20" width="260" height="78" as="geometry" />
        </mxCell>
        <mxCell id="JEYY5C1yVXIsMTf-1X0e-2" value="spaCy Analyzes JD" style="whiteSpace=wrap;strokeWidth=2;" parent="1" vertex="1">
          <mxGeometry x="304" y="171" width="189" height="54" as="geometry" />
        </mxCell>
        <mxCell id="JEYY5C1yVXIsMTf-1X0e-3" value="Candidate Applies" style="whiteSpace=wrap;strokeWidth=2;" parent="1" vertex="1">
          <mxGeometry x="31" y="32" width="188" height="54" as="geometry" />
        </mxCell>
        <mxCell id="JEYY5C1yVXIsMTf-1X0e-4" value="spaCy Parses Resume" style="whiteSpace=wrap;strokeWidth=2;" parent="1" vertex="1">
          <mxGeometry x="20" y="171" width="210" height="54" as="geometry" />
        </mxCell>
        <mxCell id="JEYY5C1yVXIsMTf-1X0e-5" value="Fetch LinkedIn Profile" style="whiteSpace=wrap;strokeWidth=2;" parent="1" vertex="1">
          <mxGeometry x="579" y="32" width="217" height="54" as="geometry" />
        </mxCell>
        <mxCell id="JEYY5C1yVXIsMTf-1X0e-6" value="Verify Data Consistency" style="whiteSpace=wrap;strokeWidth=2;" parent="1" vertex="1">
          <mxGeometry x="573" y="171" width="228" height="54" as="geometry" />
        </mxCell>
        <mxCell id="JEYY5C1yVXIsMTf-1X0e-7" value="DeepSeek Matches Candidate" style="whiteSpace=wrap;strokeWidth=2;" parent="1" vertex="1">
          <mxGeometry x="269" y="316" width="260" height="78" as="geometry" />
        </mxCell>
        <mxCell id="JEYY5C1yVXIsMTf-1X0e-8" value="AI Matching Using DeepSeek" style="whiteSpace=wrap;strokeWidth=2;" parent="1" vertex="1">
          <mxGeometry x="269" y="467" width="260" height="78" as="geometry" />
        </mxCell>
        <mxCell id="JEYY5C1yVXIsMTf-1X0e-9" value="Scikit-learn Clustering" style="whiteSpace=wrap;strokeWidth=2;" parent="1" vertex="1">
          <mxGeometry x="290" y="635" width="219" height="54" as="geometry" />
        </mxCell>
        <mxCell id="JEYY5C1yVXIsMTf-1X0e-10" value="ChromaDB Stores Candidate Embeddings" style="whiteSpace=wrap;strokeWidth=2;" parent="1" vertex="1">
          <mxGeometry x="269" y="762" width="260" height="78" as="geometry" />
        </mxCell>
        <mxCell id="JEYY5C1yVXIsMTf-1X0e-11" value="Recruiter Dashboard" style="whiteSpace=wrap;strokeWidth=2;" parent="1" vertex="1">
          <mxGeometry x="296" y="913" width="205" height="54" as="geometry" />
        </mxCell>
        <mxCell id="JEYY5C1yVXIsMTf-1X0e-12" value="Recruiter Filters &amp; Shortlists" style="whiteSpace=wrap;strokeWidth=2;" parent="1" vertex="1">
          <mxGeometry x="269" y="1058" width="260" height="78" as="geometry" />
        </mxCell>
        <mxCell id="JEYY5C1yVXIsMTf-1X0e-13" value="Candidate Selection" style="whiteSpace=wrap;strokeWidth=2;" parent="1" vertex="1">
          <mxGeometry x="297" y="1209" width="203" height="54" as="geometry" />
        </mxCell>
        <mxCell id="JEYY5C1yVXIsMTf-1X0e-14" value="Extract Requirements" style="curved=1;startArrow=none;endArrow=block;exitX=0.5;exitY=1;entryX=0.5;entryY=0;rounded=0;" parent="1" source="JEYY5C1yVXIsMTf-1X0e-1" target="JEYY5C1yVXIsMTf-1X0e-2" edge="1">
          <mxGeometry relative="1" as="geometry">
            <Array as="points" />
          </mxGeometry>
        </mxCell>
        <mxCell id="JEYY5C1yVXIsMTf-1X0e-15" value="Upload Resume" style="curved=1;startArrow=none;endArrow=block;exitX=0.5;exitY=1;entryX=0.5;entryY=0;rounded=0;" parent="1" source="JEYY5C1yVXIsMTf-1X0e-3" target="JEYY5C1yVXIsMTf-1X0e-4" edge="1">
          <mxGeometry relative="1" as="geometry">
            <Array as="points" />
          </mxGeometry>
        </mxCell>
        <mxCell id="JEYY5C1yVXIsMTf-1X0e-16" value="Scrapy Extracts Data" style="curved=1;startArrow=none;endArrow=block;exitX=0.5;exitY=1;entryX=0.5;entryY=0;rounded=0;" parent="1" source="JEYY5C1yVXIsMTf-1X0e-5" target="JEYY5C1yVXIsMTf-1X0e-6" edge="1">
          <mxGeometry relative="1" as="geometry">
            <Array as="points" />
          </mxGeometry>
        </mxCell>
        <mxCell id="JEYY5C1yVXIsMTf-1X0e-17" value="Extract Key Information" style="curved=1;startArrow=none;endArrow=block;exitX=0.5;exitY=1;entryX=0.01;entryY=-0.01;rounded=0;" parent="1" source="JEYY5C1yVXIsMTf-1X0e-4" target="JEYY5C1yVXIsMTf-1X0e-7" edge="1">
          <mxGeometry relative="1" as="geometry">
            <Array as="points">
              <mxPoint x="125" y="270" />
            </Array>
          </mxGeometry>
        </mxCell>
        <mxCell id="JEYY5C1yVXIsMTf-1X0e-18" value="Job Requirement Data" style="curved=1;startArrow=none;endArrow=block;exitX=0.5;exitY=1;entryX=0.5;entryY=-0.01;rounded=0;" parent="1" source="JEYY5C1yVXIsMTf-1X0e-2" target="JEYY5C1yVXIsMTf-1X0e-7" edge="1">
          <mxGeometry relative="1" as="geometry">
            <Array as="points" />
          </mxGeometry>
        </mxCell>
        <mxCell id="JEYY5C1yVXIsMTf-1X0e-19" value="Validate Candidate Information" style="curved=1;startArrow=none;endArrow=block;exitX=0.5;exitY=1;entryX=1;entryY=0.01;rounded=0;" parent="1" source="JEYY5C1yVXIsMTf-1X0e-6" target="JEYY5C1yVXIsMTf-1X0e-7" edge="1">
          <mxGeometry relative="1" as="geometry">
            <Array as="points">
              <mxPoint x="688" y="270" />
            </Array>
          </mxGeometry>
        </mxCell>
        <mxCell id="JEYY5C1yVXIsMTf-1X0e-20" value="Match Candidates" style="curved=1;startArrow=none;endArrow=block;exitX=0.5;exitY=0.99;entryX=0.5;entryY=-0.01;rounded=0;" parent="1" source="JEYY5C1yVXIsMTf-1X0e-7" target="JEYY5C1yVXIsMTf-1X0e-8" edge="1">
          <mxGeometry relative="1" as="geometry">
            <Array as="points" />
          </mxGeometry>
        </mxCell>
        <mxCell id="JEYY5C1yVXIsMTf-1X0e-21" value="Cultural &amp; Skill Analysis" style="curved=1;startArrow=none;endArrow=block;exitX=0.5;exitY=0.99;entryX=0.5;entryY=0;rounded=0;" parent="1" source="JEYY5C1yVXIsMTf-1X0e-8" target="JEYY5C1yVXIsMTf-1X0e-9" edge="1">
          <mxGeometry relative="1" as="geometry">
            <Array as="points" />
          </mxGeometry>
        </mxCell>
        <mxCell id="JEYY5C1yVXIsMTf-1X0e-22" value="Generate Match Score" style="curved=1;startArrow=none;endArrow=block;exitX=0.5;exitY=1;entryX=0.5;entryY=0;rounded=0;" parent="1" source="JEYY5C1yVXIsMTf-1X0e-9" target="JEYY5C1yVXIsMTf-1X0e-10" edge="1">
          <mxGeometry relative="1" as="geometry">
            <Array as="points" />
          </mxGeometry>
        </mxCell>
        <mxCell id="JEYY5C1yVXIsMTf-1X0e-23" value="Retrieve Best Matches" style="curved=1;startArrow=none;endArrow=block;exitX=0.5;exitY=1;entryX=0.5;entryY=0;rounded=0;" parent="1" source="JEYY5C1yVXIsMTf-1X0e-10" target="JEYY5C1yVXIsMTf-1X0e-11" edge="1">
          <mxGeometry relative="1" as="geometry">
            <Array as="points" />
          </mxGeometry>
        </mxCell>
        <mxCell id="JEYY5C1yVXIsMTf-1X0e-24" value="View Matches &amp; Insights" style="curved=1;startArrow=none;endArrow=block;exitX=0.5;exitY=1;entryX=0.5;entryY=0;rounded=0;" parent="1" source="JEYY5C1yVXIsMTf-1X0e-11" target="JEYY5C1yVXIsMTf-1X0e-12" edge="1">
          <mxGeometry relative="1" as="geometry">
            <Array as="points" />
          </mxGeometry>
        </mxCell>
        <mxCell id="JEYY5C1yVXIsMTf-1X0e-25" value="Final Hiring Decision" style="curved=1;startArrow=none;endArrow=block;exitX=0.5;exitY=1;entryX=0.5;entryY=0;rounded=0;" parent="1" source="JEYY5C1yVXIsMTf-1X0e-12" target="JEYY5C1yVXIsMTf-1X0e-13" edge="1">
          <mxGeometry relative="1" as="geometry">
            <Array as="points" />
          </mxGeometry>
        </mxCell>
      </root>
    </mxGraphModel>
  </diagram>
  <diagram id="-w1NbwR8LRfe99w2T8JC" name="AI-RTM">
    <mxGraphModel dx="880" dy="3872" grid="1" gridSize="10" guides="1" tooltips="1" connect="1" arrows="1" fold="1" page="1" pageScale="1" pageWidth="850" pageHeight="1100" math="0" shadow="0">
      <root>
        <mxCell id="0" />
        <mxCell id="1" parent="0" />
        <mxCell id="MPSvw7zb6-KHjmYNRLud-1" value="" style="whiteSpace=wrap;strokeWidth=2;" parent="1" vertex="1">
          <mxGeometry x="1081" y="-810" width="326" height="362" as="geometry" />
        </mxCell>
        <mxCell id="MPSvw7zb6-KHjmYNRLud-2" value="User: Interacts with Career Chatbot" style="whiteSpace=wrap;strokeWidth=2;" parent="1" vertex="1">
          <mxGeometry x="287" y="-3150" width="260" height="78" as="geometry" />
        </mxCell>
        <mxCell id="MPSvw7zb6-KHjmYNRLud-3" value="Chatbot: Requests Resume Upload&#xa;Disclaimer:Â Valid Format (PDF or DOCX, within file size limit)" style="whiteSpace=wrap;strokeWidth=2;" parent="1" vertex="1">
          <mxGeometry x="287" y="-3022" width="260" height="78" as="geometry" />
        </mxCell>
        <mxCell id="MPSvw7zb6-KHjmYNRLud-4" value="User: Uploads Resume" style="whiteSpace=wrap;strokeWidth=2;" parent="1" vertex="1">
          <mxGeometry x="308" y="-2894" width="218" height="54" as="geometry" />
        </mxCell>
        <mxCell id="MPSvw7zb6-KHjmYNRLud-5" value="Is resume format valid and size?" style="rhombus;strokeWidth=2;whiteSpace=wrap;" parent="1" vertex="1">
          <mxGeometry x="306" y="-2767" width="221" height="221" as="geometry" />
        </mxCell>
        <mxCell id="xDyO9-ussneP4XWaySg--23" style="edgeStyle=orthogonalEdgeStyle;rounded=0;orthogonalLoop=1;jettySize=auto;html=1;exitX=0;exitY=0.5;exitDx=0;exitDy=0;entryX=0;entryY=0.5;entryDx=0;entryDy=0;" edge="1" parent="1" source="MPSvw7zb6-KHjmYNRLud-6" target="MPSvw7zb6-KHjmYNRLud-3">
          <mxGeometry relative="1" as="geometry" />
        </mxCell>
        <mxCell id="MPSvw7zb6-KHjmYNRLud-6" value="Chatbot: Invalid format, please re-upload correct format" style="whiteSpace=wrap;strokeWidth=2;" parent="1" vertex="1">
          <mxGeometry x="140" y="-2473" width="260" height="78" as="geometry" />
        </mxCell>
        <mxCell id="MPSvw7zb6-KHjmYNRLud-7" value="Chatbot: Extracts Skills" style="whiteSpace=wrap;strokeWidth=2;" parent="1" vertex="1">
          <mxGeometry x="450" y="-2461" width="227" height="54" as="geometry" />
        </mxCell>
        <mxCell id="MPSvw7zb6-KHjmYNRLud-8" value="AI: Matches Resume with Job Listings, Matching Jobs Found?" style="rhombus;strokeWidth=2;whiteSpace=wrap;fontSize=11;" parent="1" vertex="1">
          <mxGeometry x="459" y="-2345" width="209" height="209" as="geometry" />
        </mxCell>
        <mxCell id="xDyO9-ussneP4XWaySg--24" style="edgeStyle=orthogonalEdgeStyle;rounded=0;orthogonalLoop=1;jettySize=auto;html=1;exitX=0.5;exitY=1;exitDx=0;exitDy=0;entryX=0.5;entryY=0;entryDx=0;entryDy=0;" edge="1" parent="1" source="MPSvw7zb6-KHjmYNRLud-9" target="xDyO9-ussneP4XWaySg--5">
          <mxGeometry relative="1" as="geometry">
            <Array as="points">
              <mxPoint x="410" y="-1986" />
              <mxPoint x="410" y="-870" />
              <mxPoint x="929" y="-870" />
            </Array>
          </mxGeometry>
        </mxCell>
        <mxCell id="MPSvw7zb6-KHjmYNRLud-9" value="Chatbot: No matching jobs found" style="whiteSpace=wrap;strokeWidth=2;" parent="1" vertex="1">
          <mxGeometry x="278" y="-2064" width="260" height="78" as="geometry" />
        </mxCell>
        <mxCell id="MPSvw7zb6-KHjmYNRLud-10" value="Chatbot: Lists Jobs &amp; Asks to Apply" style="whiteSpace=wrap;strokeWidth=2;" parent="1" vertex="1">
          <mxGeometry x="588" y="-2064" width="260" height="78" as="geometry" />
        </mxCell>
        <mxCell id="MPSvw7zb6-KHjmYNRLud-11" value="User Wants to Apply?" style="rhombus;strokeWidth=2;whiteSpace=wrap;" parent="1" vertex="1">
          <mxGeometry x="617" y="-1936" width="203" height="203" as="geometry" />
        </mxCell>
        <mxCell id="xDyO9-ussneP4XWaySg--26" style="edgeStyle=orthogonalEdgeStyle;rounded=0;orthogonalLoop=1;jettySize=auto;html=1;endArrow=none;startFill=0;" edge="1" parent="1" source="MPSvw7zb6-KHjmYNRLud-12">
          <mxGeometry relative="1" as="geometry">
            <mxPoint x="410" y="-1621" as="targetPoint" />
          </mxGeometry>
        </mxCell>
        <mxCell id="MPSvw7zb6-KHjmYNRLud-12" value="Chatbot: Thanks for using us service" style="whiteSpace=wrap;strokeWidth=2;" parent="1" vertex="1">
          <mxGeometry x="453" y="-1660" width="260" height="78" as="geometry" />
        </mxCell>
        <mxCell id="MPSvw7zb6-KHjmYNRLud-13" value="User: Selects Job&#xa;(Enter the number)" style="whiteSpace=wrap;strokeWidth=2;" parent="1" vertex="1">
          <mxGeometry x="763" y="-1648" width="183" height="54" as="geometry" />
        </mxCell>
        <mxCell id="MPSvw7zb6-KHjmYNRLud-14" value="Valid Job Selected?" style="rhombus;strokeWidth=2;whiteSpace=wrap;" parent="1" vertex="1">
          <mxGeometry x="759" y="-1532" width="191" height="191" as="geometry" />
        </mxCell>
        <mxCell id="xDyO9-ussneP4XWaySg--7" style="edgeStyle=orthogonalEdgeStyle;rounded=0;orthogonalLoop=1;jettySize=auto;html=1;entryX=0;entryY=0.5;entryDx=0;entryDy=0;" edge="1" parent="1" source="MPSvw7zb6-KHjmYNRLud-15" target="MPSvw7zb6-KHjmYNRLud-13">
          <mxGeometry relative="1" as="geometry">
            <Array as="points">
              <mxPoint x="520" y="-1229" />
              <mxPoint x="520" y="-1520" />
              <mxPoint x="740" y="-1520" />
              <mxPoint x="740" y="-1621" />
            </Array>
          </mxGeometry>
        </mxCell>
        <mxCell id="MPSvw7zb6-KHjmYNRLud-15" value="Chatbot: Please select a valid job" style="whiteSpace=wrap;strokeWidth=2;" parent="1" vertex="1">
          <mxGeometry x="569" y="-1268" width="260" height="78" as="geometry" />
        </mxCell>
        <mxCell id="MPSvw7zb6-KHjmYNRLud-17" value="User: Confirms" style="whiteSpace=wrap;strokeWidth=2;" parent="1" vertex="1">
          <mxGeometry x="1163" y="-1040" width="166" height="54" as="geometry" />
        </mxCell>
        <mxCell id="xDyO9-ussneP4XWaySg--6" style="edgeStyle=orthogonalEdgeStyle;rounded=0;orthogonalLoop=1;jettySize=auto;html=1;entryX=0.5;entryY=0;entryDx=0;entryDy=0;" edge="1" parent="1" source="MPSvw7zb6-KHjmYNRLud-18" target="xDyO9-ussneP4XWaySg--5">
          <mxGeometry relative="1" as="geometry">
            <mxPoint x="927" y="-267" as="targetPoint" />
          </mxGeometry>
        </mxCell>
        <mxCell id="MPSvw7zb6-KHjmYNRLud-18" value="Chatbot: Thanks for applying! Our team will get back to you soon" style="whiteSpace=wrap;strokeWidth=2;" parent="1" vertex="1">
          <mxGeometry x="1116" y="-911" width="260" height="78" as="geometry" />
        </mxCell>
        <mxCell id="MPSvw7zb6-KHjmYNRLud-19" value="Store Application in Database" style="whiteSpace=wrap;strokeWidth=2;" parent="1" vertex="1">
          <mxGeometry x="1116" y="-783" width="260" height="78" as="geometry" />
        </mxCell>
        <mxCell id="MPSvw7zb6-KHjmYNRLud-20" value="Notify Recruiter" style="whiteSpace=wrap;strokeWidth=2;" parent="1" vertex="1">
          <mxGeometry x="1159" y="-655" width="174" height="54" as="geometry" />
        </mxCell>
        <mxCell id="qGJz5S5VRMJ7L1zfgS_8-1" style="edgeStyle=orthogonalEdgeStyle;rounded=0;orthogonalLoop=1;jettySize=auto;html=1;endArrow=none;startFill=0;" edge="1" parent="1" source="MPSvw7zb6-KHjmYNRLud-21">
          <mxGeometry relative="1" as="geometry">
            <mxPoint x="930" y="-410" as="targetPoint" />
            <Array as="points">
              <mxPoint x="1246" y="-410" />
              <mxPoint x="931" y="-410" />
            </Array>
          </mxGeometry>
        </mxCell>
        <mxCell id="MPSvw7zb6-KHjmYNRLud-21" value="Recruiter Dashboard: Display Applications" style="whiteSpace=wrap;strokeWidth=2;" parent="1" vertex="1">
          <mxGeometry x="1116" y="-551" width="260" height="78" as="geometry" />
        </mxCell>
        <mxCell id="MPSvw7zb6-KHjmYNRLud-22" value="" style="curved=1;startArrow=none;endArrow=block;exitX=0.5;exitY=1;entryX=0.5;entryY=0;rounded=0;" parent="1" source="MPSvw7zb6-KHjmYNRLud-2" target="MPSvw7zb6-KHjmYNRLud-3" edge="1">
          <mxGeometry relative="1" as="geometry">
            <Array as="points" />
          </mxGeometry>
        </mxCell>
        <mxCell id="MPSvw7zb6-KHjmYNRLud-23" value="" style="curved=1;startArrow=none;endArrow=block;exitX=0.5;exitY=1;entryX=0.5;entryY=0;rounded=0;" parent="1" source="MPSvw7zb6-KHjmYNRLud-3" target="MPSvw7zb6-KHjmYNRLud-4" edge="1">
          <mxGeometry relative="1" as="geometry">
            <Array as="points" />
          </mxGeometry>
        </mxCell>
        <mxCell id="MPSvw7zb6-KHjmYNRLud-24" value="Valid Format?" style="curved=1;startArrow=none;endArrow=block;exitX=0.5;exitY=1;entryX=0.5;entryY=0;rounded=0;" parent="1" source="MPSvw7zb6-KHjmYNRLud-4" target="MPSvw7zb6-KHjmYNRLud-5" edge="1">
          <mxGeometry relative="1" as="geometry">
            <Array as="points" />
          </mxGeometry>
        </mxCell>
        <mxCell id="MPSvw7zb6-KHjmYNRLud-27" value="" style="curved=1;startArrow=none;endArrow=block;exitX=0.5;exitY=0.99;entryX=0.5;entryY=0;rounded=0;" parent="1" source="MPSvw7zb6-KHjmYNRLud-7" target="MPSvw7zb6-KHjmYNRLud-8" edge="1">
          <mxGeometry relative="1" as="geometry">
            <Array as="points" />
          </mxGeometry>
        </mxCell>
        <mxCell id="MPSvw7zb6-KHjmYNRLud-30" value="" style="curved=1;startArrow=none;endArrow=block;exitX=0.5;exitY=1;entryX=0.5;entryY=0;rounded=0;" parent="1" source="MPSvw7zb6-KHjmYNRLud-10" target="MPSvw7zb6-KHjmYNRLud-11" edge="1">
          <mxGeometry relative="1" as="geometry">
            <Array as="points" />
          </mxGeometry>
        </mxCell>
        <mxCell id="MPSvw7zb6-KHjmYNRLud-33" value="" style="curved=1;startArrow=none;endArrow=block;exitX=0.5;exitY=1;entryX=0.5;entryY=0;rounded=0;" parent="1" source="MPSvw7zb6-KHjmYNRLud-13" target="MPSvw7zb6-KHjmYNRLud-14" edge="1">
          <mxGeometry relative="1" as="geometry">
            <Array as="points" />
          </mxGeometry>
        </mxCell>
        <mxCell id="MPSvw7zb6-KHjmYNRLud-37" value="" style="curved=1;startArrow=none;endArrow=block;exitX=0.5;exitY=1;entryX=0.5;entryY=0;rounded=0;" parent="1" source="MPSvw7zb6-KHjmYNRLud-17" target="MPSvw7zb6-KHjmYNRLud-18" edge="1">
          <mxGeometry relative="1" as="geometry">
            <Array as="points" />
          </mxGeometry>
        </mxCell>
        <mxCell id="MPSvw7zb6-KHjmYNRLud-38" value="" style="curved=1;startArrow=none;endArrow=block;exitX=0.5;exitY=1;entryX=0.5;entryY=0;rounded=0;" parent="1" source="MPSvw7zb6-KHjmYNRLud-18" target="MPSvw7zb6-KHjmYNRLud-19" edge="1">
          <mxGeometry relative="1" as="geometry">
            <Array as="points" />
          </mxGeometry>
        </mxCell>
        <mxCell id="MPSvw7zb6-KHjmYNRLud-39" value="" style="curved=1;startArrow=none;endArrow=block;exitX=0.5;exitY=1;entryX=0.5;entryY=0;rounded=0;" parent="1" source="MPSvw7zb6-KHjmYNRLud-19" target="MPSvw7zb6-KHjmYNRLud-20" edge="1">
          <mxGeometry relative="1" as="geometry">
            <Array as="points" />
          </mxGeometry>
        </mxCell>
        <mxCell id="MPSvw7zb6-KHjmYNRLud-40" value="" style="curved=1;startArrow=none;endArrow=block;exitX=0.5;exitY=1;entryX=0.5;entryY=0;rounded=0;" parent="1" source="MPSvw7zb6-KHjmYNRLud-20" target="MPSvw7zb6-KHjmYNRLud-21" edge="1">
          <mxGeometry relative="1" as="geometry">
            <Array as="points" />
          </mxGeometry>
        </mxCell>
        <mxCell id="PS3omV95MLZfpFX8VFj2-4" value="" style="endArrow=classic;html=1;rounded=0;entryX=0.5;entryY=0;entryDx=0;entryDy=0;exitX=0;exitY=0.5;exitDx=0;exitDy=0;" parent="1" source="MPSvw7zb6-KHjmYNRLud-14" target="MPSvw7zb6-KHjmYNRLud-15" edge="1">
          <mxGeometry relative="1" as="geometry">
            <mxPoint x="760" y="-1440" as="sourcePoint" />
            <mxPoint x="660" y="-1440" as="targetPoint" />
            <Array as="points">
              <mxPoint x="699" y="-1436" />
            </Array>
          </mxGeometry>
        </mxCell>
        <mxCell id="PS3omV95MLZfpFX8VFj2-5" value="No" style="edgeLabel;resizable=0;html=1;;align=center;verticalAlign=middle;" parent="PS3omV95MLZfpFX8VFj2-4" connectable="0" vertex="1">
          <mxGeometry relative="1" as="geometry" />
        </mxCell>
        <mxCell id="PS3omV95MLZfpFX8VFj2-6" value="" style="endArrow=classic;html=1;rounded=0;entryX=0.5;entryY=0;entryDx=0;entryDy=0;exitX=0;exitY=0.5;exitDx=0;exitDy=0;" parent="1" source="MPSvw7zb6-KHjmYNRLud-11" edge="1">
          <mxGeometry relative="1" as="geometry">
            <mxPoint x="610" y="-1830" as="sourcePoint" />
            <mxPoint x="557" y="-1662" as="targetPoint" />
            <Array as="points">
              <mxPoint x="557" y="-1834" />
            </Array>
          </mxGeometry>
        </mxCell>
        <mxCell id="PS3omV95MLZfpFX8VFj2-7" value="No" style="edgeLabel;resizable=0;html=1;;align=center;verticalAlign=middle;" parent="PS3omV95MLZfpFX8VFj2-6" connectable="0" vertex="1">
          <mxGeometry relative="1" as="geometry" />
        </mxCell>
        <mxCell id="PS3omV95MLZfpFX8VFj2-8" value="" style="endArrow=classic;html=1;rounded=0;entryX=0.465;entryY=0;entryDx=0;entryDy=0;exitX=0;exitY=0.5;exitDx=0;exitDy=0;entryPerimeter=0;" parent="1" target="MPSvw7zb6-KHjmYNRLud-9" edge="1">
          <mxGeometry relative="1" as="geometry">
            <mxPoint x="459" y="-2242" as="sourcePoint" />
            <mxPoint x="399" y="-2070" as="targetPoint" />
            <Array as="points">
              <mxPoint x="399" y="-2242" />
            </Array>
          </mxGeometry>
        </mxCell>
        <mxCell id="PS3omV95MLZfpFX8VFj2-9" value="No" style="edgeLabel;resizable=0;html=1;;align=center;verticalAlign=middle;" parent="PS3omV95MLZfpFX8VFj2-8" connectable="0" vertex="1">
          <mxGeometry relative="1" as="geometry" />
        </mxCell>
        <mxCell id="PS3omV95MLZfpFX8VFj2-10" value="" style="endArrow=classic;html=1;rounded=0;entryX=0.465;entryY=0;entryDx=0;entryDy=0;exitX=0;exitY=0.5;exitDx=0;exitDy=0;entryPerimeter=0;" parent="1" source="MPSvw7zb6-KHjmYNRLud-5" edge="1">
          <mxGeometry relative="1" as="geometry">
            <mxPoint x="300" y="-2651" as="sourcePoint" />
            <mxPoint x="240" y="-2473" as="targetPoint" />
            <Array as="points">
              <mxPoint x="240" y="-2656" />
            </Array>
          </mxGeometry>
        </mxCell>
        <mxCell id="PS3omV95MLZfpFX8VFj2-11" value="No" style="edgeLabel;resizable=0;html=1;;align=center;verticalAlign=middle;" parent="PS3omV95MLZfpFX8VFj2-10" connectable="0" vertex="1">
          <mxGeometry relative="1" as="geometry" />
        </mxCell>
        <mxCell id="PS3omV95MLZfpFX8VFj2-12" value="" style="endArrow=classic;html=1;rounded=0;entryX=0.621;entryY=-0.019;entryDx=0;entryDy=0;entryPerimeter=0;" parent="1" target="MPSvw7zb6-KHjmYNRLud-7" edge="1">
          <mxGeometry relative="1" as="geometry">
            <mxPoint x="526" y="-2657" as="sourcePoint" />
            <mxPoint x="626" y="-2657" as="targetPoint" />
            <Array as="points">
              <mxPoint x="591" y="-2657" />
            </Array>
          </mxGeometry>
        </mxCell>
        <mxCell id="PS3omV95MLZfpFX8VFj2-13" value="Yes" style="edgeLabel;resizable=0;html=1;;align=center;verticalAlign=middle;" parent="PS3omV95MLZfpFX8VFj2-12" connectable="0" vertex="1">
          <mxGeometry relative="1" as="geometry" />
        </mxCell>
        <mxCell id="PS3omV95MLZfpFX8VFj2-16" value="" style="endArrow=classic;html=1;rounded=0;entryX=0.465;entryY=0;entryDx=0;entryDy=0;exitX=0;exitY=0.5;exitDx=0;exitDy=0;entryPerimeter=0;" parent="1" edge="1">
          <mxGeometry relative="1" as="geometry">
            <mxPoint x="668" y="-2242" as="sourcePoint" />
            <mxPoint x="728" y="-2064" as="targetPoint" />
            <Array as="points">
              <mxPoint x="728" y="-2242" />
            </Array>
          </mxGeometry>
        </mxCell>
        <mxCell id="PS3omV95MLZfpFX8VFj2-17" value="Yes" style="edgeLabel;resizable=0;html=1;;align=center;verticalAlign=middle;" parent="PS3omV95MLZfpFX8VFj2-16" connectable="0" vertex="1">
          <mxGeometry relative="1" as="geometry" />
        </mxCell>
        <mxCell id="PS3omV95MLZfpFX8VFj2-18" value="" style="endArrow=classic;html=1;rounded=0;entryX=0.5;entryY=0;entryDx=0;entryDy=0;exitX=1;exitY=0.5;exitDx=0;exitDy=0;" parent="1" source="MPSvw7zb6-KHjmYNRLud-11" edge="1">
          <mxGeometry relative="1" as="geometry">
            <mxPoint x="824.5" y="-1820" as="sourcePoint" />
            <mxPoint x="884.5" y="-1648" as="targetPoint" />
            <Array as="points">
              <mxPoint x="885" y="-1834" />
            </Array>
          </mxGeometry>
        </mxCell>
        <mxCell id="PS3omV95MLZfpFX8VFj2-19" value="Yes" style="edgeLabel;resizable=0;html=1;;align=center;verticalAlign=middle;" parent="PS3omV95MLZfpFX8VFj2-18" connectable="0" vertex="1">
          <mxGeometry relative="1" as="geometry" />
        </mxCell>
        <mxCell id="PS3omV95MLZfpFX8VFj2-20" value="" style="endArrow=classic;html=1;rounded=0;entryX=0.5;entryY=0;entryDx=0;entryDy=0;exitX=0;exitY=0.5;exitDx=0;exitDy=0;" parent="1" edge="1">
          <mxGeometry relative="1" as="geometry">
            <mxPoint x="950" y="-1436" as="sourcePoint" />
            <mxPoint x="1010" y="-1268" as="targetPoint" />
            <Array as="points">
              <mxPoint x="1010" y="-1436" />
            </Array>
          </mxGeometry>
        </mxCell>
        <mxCell id="PS3omV95MLZfpFX8VFj2-21" value="Yes" style="edgeLabel;resizable=0;html=1;;align=center;verticalAlign=middle;" parent="PS3omV95MLZfpFX8VFj2-20" connectable="0" vertex="1">
          <mxGeometry relative="1" as="geometry" />
        </mxCell>
        <mxCell id="-Sdhcxc5S9ohFY9NPNsz-1" value="&lt;span id=&quot;docs-internal-guid-0896d25c-7fff-311c-dc6e-5fba6103afdb&quot;&gt;&lt;h1 style=&quot;line-height:1.38;text-indent: 36pt;margin-top:24pt;margin-bottom:6pt;&quot; dir=&quot;ltr&quot;&gt;&lt;span style=&quot;font-family: Arial, sans-serif; background-color: transparent; font-variant-numeric: normal; font-variant-east-asian: normal; font-variant-alternates: normal; font-variant-position: normal; vertical-align: baseline; white-space-collapse: preserve;&quot;&gt;&lt;font style=&quot;font-size: 16px;&quot;&gt;&lt;u&gt;&lt;i&gt;AI-Driven Recruitment and Talent Matching Using DeepSeek&lt;/i&gt;&lt;/u&gt;&lt;/font&gt;&lt;/span&gt;&lt;/h1&gt;&lt;/span&gt;" style="text;html=1;align=center;verticalAlign=middle;whiteSpace=wrap;rounded=0;" parent="1" vertex="1">
          <mxGeometry x="130" y="-3290" width="510" height="80" as="geometry" />
        </mxCell>
        <mxCell id="xDyO9-ussneP4XWaySg--4" value="" style="edgeStyle=orthogonalEdgeStyle;rounded=0;orthogonalLoop=1;jettySize=auto;html=1;" edge="1" parent="1" source="xDyO9-ussneP4XWaySg--1" target="MPSvw7zb6-KHjmYNRLud-2">
          <mxGeometry relative="1" as="geometry">
            <Array as="points">
              <mxPoint x="408" y="-3160" />
              <mxPoint x="408" y="-3160" />
            </Array>
          </mxGeometry>
        </mxCell>
        <mxCell id="xDyO9-ussneP4XWaySg--1" value="Start" style="ellipse;whiteSpace=wrap;html=1;" vertex="1" parent="1">
          <mxGeometry x="366.25" y="-3220" width="83.5" height="40" as="geometry" />
        </mxCell>
        <mxCell id="xDyO9-ussneP4XWaySg--5" value="End process" style="ellipse;whiteSpace=wrap;html=1;" vertex="1" parent="1">
          <mxGeometry x="880" y="-370" width="97" height="50" as="geometry" />
        </mxCell>
        <mxCell id="xDyO9-ussneP4XWaySg--9" value="Chatbot: Confirm application?" style="rhombus;strokeWidth=2;whiteSpace=wrap;" vertex="1" parent="1">
          <mxGeometry x="913.5" y="-1268" width="191" height="191" as="geometry" />
        </mxCell>
        <mxCell id="xDyO9-ussneP4XWaySg--15" value="" style="endArrow=classic;html=1;rounded=0;entryX=0.5;entryY=0;entryDx=0;entryDy=0;" edge="1" parent="1" target="MPSvw7zb6-KHjmYNRLud-17">
          <mxGeometry relative="1" as="geometry">
            <mxPoint x="1104.5" y="-1173" as="sourcePoint" />
            <mxPoint x="1204.5" y="-1173" as="targetPoint" />
            <Array as="points">
              <mxPoint x="1246" y="-1173" />
            </Array>
          </mxGeometry>
        </mxCell>
        <mxCell id="xDyO9-ussneP4XWaySg--16" value="Yes&amp;nbsp;&amp;nbsp;" style="edgeLabel;resizable=0;html=1;;align=center;verticalAlign=middle;" connectable="0" vertex="1" parent="xDyO9-ussneP4XWaySg--15">
          <mxGeometry relative="1" as="geometry" />
        </mxCell>
        <mxCell id="xDyO9-ussneP4XWaySg--27" style="edgeStyle=orthogonalEdgeStyle;rounded=0;orthogonalLoop=1;jettySize=auto;html=1;endArrow=classic;startFill=0;entryX=0;entryY=0.5;entryDx=0;entryDy=0;endFill=1;" edge="1" parent="1" source="xDyO9-ussneP4XWaySg--20" target="MPSvw7zb6-KHjmYNRLud-10">
          <mxGeometry relative="1" as="geometry">
            <mxPoint x="520" y="-1240" as="targetPoint" />
            <Array as="points">
              <mxPoint x="370" y="-1013" />
              <mxPoint x="370" y="-1930" />
              <mxPoint x="560" y="-1930" />
              <mxPoint x="560" y="-2025" />
            </Array>
          </mxGeometry>
        </mxCell>
        <mxCell id="xDyO9-ussneP4XWaySg--20" value="Check out listed jobs" style="whiteSpace=wrap;strokeWidth=2;" vertex="1" parent="1">
          <mxGeometry x="730" y="-1040" width="166" height="54" as="geometry" />
        </mxCell>
        <mxCell id="xDyO9-ussneP4XWaySg--21" value="" style="endArrow=classic;html=1;rounded=0;entryX=0.5;entryY=0;entryDx=0;entryDy=0;" edge="1" parent="1" target="xDyO9-ussneP4XWaySg--20">
          <mxGeometry relative="1" as="geometry">
            <mxPoint x="913.5" y="-1173" as="sourcePoint" />
            <mxPoint x="813.5" y="-1173" as="targetPoint" />
            <Array as="points">
              <mxPoint x="813" y="-1173" />
            </Array>
          </mxGeometry>
        </mxCell>
        <mxCell id="xDyO9-ussneP4XWaySg--22" value="No" style="edgeLabel;resizable=0;html=1;;align=center;verticalAlign=middle;" connectable="0" vertex="1" parent="xDyO9-ussneP4XWaySg--21">
          <mxGeometry relative="1" as="geometry" />
        </mxCell>
      </root>
    </mxGraphModel>
  </diagram>
  <diagram id="69jqIdOLP2S2Cq01_33C" name="Page-3">
    <mxGraphModel dx="880" dy="572" grid="1" gridSize="10" guides="1" tooltips="1" connect="1" arrows="1" fold="1" page="1" pageScale="1" pageWidth="850" pageHeight="1100" math="0" shadow="0">
      <root>
        <mxCell id="0" />
        <mxCell id="1" parent="0" />
        <mxCell id="MiE3vX3wECgtqe4r-pBT-1" value="User initiates chat" style="whiteSpace=wrap;strokeWidth=2;" vertex="1" parent="1">
          <mxGeometry x="425" y="20" width="192" height="54" as="geometry" />
        </mxCell>
        <mxCell id="MiE3vX3wECgtqe4r-pBT-2" value="Chatbot asks for resume upload" style="whiteSpace=wrap;strokeWidth=2;" vertex="1" parent="1">
          <mxGeometry x="390" y="147" width="260" height="78" as="geometry" />
        </mxCell>
        <mxCell id="MiE3vX3wECgtqe4r-pBT-3" value="Is the resume valid?" style="rhombus;strokeWidth=2;whiteSpace=wrap;" vertex="1" parent="1">
          <mxGeometry x="303" y="275" width="196" height="196" as="geometry" />
        </mxCell>
        <mxCell id="MiE3vX3wECgtqe4r-pBT-4" value="Processing resume..." style="whiteSpace=wrap;strokeWidth=2;" vertex="1" parent="1">
          <mxGeometry x="274" y="556" width="209" height="54" as="geometry" />
        </mxCell>
        <mxCell id="MiE3vX3wECgtqe4r-pBT-5" value="Invalid format or size, ask for re-upload" style="whiteSpace=wrap;strokeWidth=2;" vertex="1" parent="1">
          <mxGeometry x="533" y="544" width="260" height="78" as="geometry" />
        </mxCell>
        <mxCell id="MiE3vX3wECgtqe4r-pBT-6" value="Extracting skills &amp; experience" style="whiteSpace=wrap;strokeWidth=2;" vertex="1" parent="1">
          <mxGeometry x="248" y="672" width="260" height="78" as="geometry" />
        </mxCell>
        <mxCell id="MiE3vX3wECgtqe4r-pBT-7" value="Matching jobs found?" style="rhombus;strokeWidth=2;whiteSpace=wrap;" vertex="1" parent="1">
          <mxGeometry x="276" y="800" width="204" height="204" as="geometry" />
        </mxCell>
        <mxCell id="MiE3vX3wECgtqe4r-pBT-8" value="Show matched jobs" style="whiteSpace=wrap;strokeWidth=2;" vertex="1" parent="1">
          <mxGeometry x="401" y="1077" width="199" height="54" as="geometry" />
        </mxCell>
        <mxCell id="MiE3vX3wECgtqe4r-pBT-9" value="No matching jobs found, suggest improvements" style="whiteSpace=wrap;strokeWidth=2;" vertex="1" parent="1">
          <mxGeometry x="20" y="1538" width="260" height="78" as="geometry" />
        </mxCell>
        <mxCell id="MiE3vX3wECgtqe4r-pBT-10" value="User selects a job" style="whiteSpace=wrap;strokeWidth=2;" vertex="1" parent="1">
          <mxGeometry x="406" y="1181" width="187" height="54" as="geometry" />
        </mxCell>
        <mxCell id="MiE3vX3wECgtqe4r-pBT-11" value="Confirm to apply?" style="rhombus;strokeWidth=2;whiteSpace=wrap;" vertex="1" parent="1">
          <mxGeometry x="410" y="1285" width="180" height="180" as="geometry" />
        </mxCell>
        <mxCell id="MiE3vX3wECgtqe4r-pBT-12" value="Application submitted" style="whiteSpace=wrap;strokeWidth=2;" vertex="1" parent="1">
          <mxGeometry x="414" y="1550" width="218" height="54" as="geometry" />
        </mxCell>
        <mxCell id="MiE3vX3wECgtqe4r-pBT-13" value="Thank you! Application submitted" style="whiteSpace=wrap;strokeWidth=2;" vertex="1" parent="1">
          <mxGeometry x="393" y="1666" width="260" height="78" as="geometry" />
        </mxCell>
        <mxCell id="MiE3vX3wECgtqe4r-pBT-14" value="Database update successful?" style="rhombus;strokeWidth=2;whiteSpace=wrap;" vertex="1" parent="1">
          <mxGeometry x="384" y="1794" width="278" height="278" as="geometry" />
        </mxCell>
        <mxCell id="MiE3vX3wECgtqe4r-pBT-15" value="Store in DB, show in Recruiter Dashboard" style="whiteSpace=wrap;strokeWidth=2;" vertex="1" parent="1">
          <mxGeometry x="247" y="2145" width="260" height="78" as="geometry" />
        </mxCell>
        <mxCell id="MiE3vX3wECgtqe4r-pBT-16" value="Log error, retry storing" style="whiteSpace=wrap;strokeWidth=2;" vertex="1" parent="1">
          <mxGeometry x="557" y="2157" width="223" height="54" as="geometry" />
        </mxCell>
        <mxCell id="MiE3vX3wECgtqe4r-pBT-17" value="End process" style="whiteSpace=wrap;strokeWidth=2;" vertex="1" parent="1">
          <mxGeometry x="305" y="2273" width="144" height="54" as="geometry" />
        </mxCell>
        <mxCell id="MiE3vX3wECgtqe4r-pBT-18" value="Hi" style="curved=1;startArrow=none;endArrow=block;exitX=0.5;exitY=1;entryX=0.5;entryY=0;rounded=0;" edge="1" parent="1" source="MiE3vX3wECgtqe4r-pBT-1" target="MiE3vX3wECgtqe4r-pBT-2">
          <mxGeometry relative="1" as="geometry">
            <Array as="points" />
          </mxGeometry>
        </mxCell>
        <mxCell id="MiE3vX3wECgtqe4r-pBT-19" value="" style="curved=1;startArrow=none;endArrow=block;exitX=0.22;exitY=1;entryX=0.5;entryY=0;rounded=0;" edge="1" parent="1" source="MiE3vX3wECgtqe4r-pBT-2" target="MiE3vX3wECgtqe4r-pBT-3">
          <mxGeometry relative="1" as="geometry">
            <Array as="points">
              <mxPoint x="401" y="250" />
            </Array>
          </mxGeometry>
        </mxCell>
        <mxCell id="MiE3vX3wECgtqe4r-pBT-20" value="Yes" style="curved=1;startArrow=none;endArrow=block;exitX=0.42;exitY=1;entryX=0.5;entryY=-0.01;rounded=0;" edge="1" parent="1" source="MiE3vX3wECgtqe4r-pBT-3" target="MiE3vX3wECgtqe4r-pBT-4">
          <mxGeometry relative="1" as="geometry">
            <Array as="points">
              <mxPoint x="378" y="507" />
            </Array>
          </mxGeometry>
        </mxCell>
        <mxCell id="MiE3vX3wECgtqe4r-pBT-21" value="No" style="curved=1;startArrow=none;endArrow=block;exitX=1;exitY=0.97;entryX=0.26;entryY=0;rounded=0;" edge="1" parent="1" source="MiE3vX3wECgtqe4r-pBT-3" target="MiE3vX3wECgtqe4r-pBT-5">
          <mxGeometry relative="1" as="geometry">
            <Array as="points">
              <mxPoint x="543" y="507" />
            </Array>
          </mxGeometry>
        </mxCell>
        <mxCell id="MiE3vX3wECgtqe4r-pBT-22" value="" style="curved=1;startArrow=none;endArrow=block;exitX=0.53;exitY=0;entryX=0.87;entryY=1;rounded=0;" edge="1" parent="1" source="MiE3vX3wECgtqe4r-pBT-5" target="MiE3vX3wECgtqe4r-pBT-2">
          <mxGeometry relative="1" as="geometry">
            <Array as="points">
              <mxPoint x="678" y="507" />
              <mxPoint x="678" y="250" />
            </Array>
          </mxGeometry>
        </mxCell>
        <mxCell id="MiE3vX3wECgtqe4r-pBT-23" value="" style="curved=1;startArrow=none;endArrow=block;exitX=0.5;exitY=0.99;entryX=0.5;entryY=0;rounded=0;" edge="1" parent="1" source="MiE3vX3wECgtqe4r-pBT-4" target="MiE3vX3wECgtqe4r-pBT-6">
          <mxGeometry relative="1" as="geometry">
            <Array as="points" />
          </mxGeometry>
        </mxCell>
        <mxCell id="MiE3vX3wECgtqe4r-pBT-24" value="" style="curved=1;startArrow=none;endArrow=block;exitX=0.5;exitY=1;entryX=0.5;entryY=0;rounded=0;" edge="1" parent="1" source="MiE3vX3wECgtqe4r-pBT-6" target="MiE3vX3wECgtqe4r-pBT-7">
          <mxGeometry relative="1" as="geometry">
            <Array as="points" />
          </mxGeometry>
        </mxCell>
        <mxCell id="MiE3vX3wECgtqe4r-pBT-25" value="Yes" style="curved=1;startArrow=none;endArrow=block;exitX=0.94;exitY=1;entryX=0.5;entryY=0;rounded=0;" edge="1" parent="1" source="MiE3vX3wECgtqe4r-pBT-7" target="MiE3vX3wECgtqe4r-pBT-8">
          <mxGeometry relative="1" as="geometry">
            <Array as="points">
              <mxPoint x="500" y="1041" />
            </Array>
          </mxGeometry>
        </mxCell>
        <mxCell id="MiE3vX3wECgtqe4r-pBT-26" value="No" style="curved=1;startArrow=none;endArrow=block;exitX=0;exitY=0.78;entryX=0.47;entryY=0;rounded=0;" edge="1" parent="1" source="MiE3vX3wECgtqe4r-pBT-7" target="MiE3vX3wECgtqe4r-pBT-9">
          <mxGeometry relative="1" as="geometry">
            <Array as="points">
              <mxPoint x="134" y="1041" />
              <mxPoint x="134" y="1502" />
            </Array>
          </mxGeometry>
        </mxCell>
        <mxCell id="MiE3vX3wECgtqe4r-pBT-27" value="" style="curved=1;startArrow=none;endArrow=block;exitX=0.5;exitY=1;entryX=0.5;entryY=0;rounded=0;" edge="1" parent="1" source="MiE3vX3wECgtqe4r-pBT-8" target="MiE3vX3wECgtqe4r-pBT-10">
          <mxGeometry relative="1" as="geometry">
            <Array as="points" />
          </mxGeometry>
        </mxCell>
        <mxCell id="MiE3vX3wECgtqe4r-pBT-28" value="" style="curved=1;startArrow=none;endArrow=block;exitX=0.5;exitY=1;entryX=0.5;entryY=0;rounded=0;" edge="1" parent="1" source="MiE3vX3wECgtqe4r-pBT-10" target="MiE3vX3wECgtqe4r-pBT-11">
          <mxGeometry relative="1" as="geometry">
            <Array as="points" />
          </mxGeometry>
        </mxCell>
        <mxCell id="MiE3vX3wECgtqe4r-pBT-29" value="Yes" style="curved=1;startArrow=none;endArrow=block;exitX=0.59;exitY=1;entryX=0.5;entryY=0;rounded=0;" edge="1" parent="1" source="MiE3vX3wECgtqe4r-pBT-11" target="MiE3vX3wECgtqe4r-pBT-12">
          <mxGeometry relative="1" as="geometry">
            <Array as="points">
              <mxPoint x="523" y="1502" />
            </Array>
          </mxGeometry>
        </mxCell>
        <mxCell id="MiE3vX3wECgtqe4r-pBT-30" value="No" style="curved=1;startArrow=none;endArrow=block;exitX=0;exitY=0.78;entryX=0.74;entryY=0;rounded=0;" edge="1" parent="1" source="MiE3vX3wECgtqe4r-pBT-11" target="MiE3vX3wECgtqe4r-pBT-9">
          <mxGeometry relative="1" as="geometry">
            <Array as="points">
              <mxPoint x="272" y="1502" />
            </Array>
          </mxGeometry>
        </mxCell>
        <mxCell id="MiE3vX3wECgtqe4r-pBT-31" value="" style="curved=1;startArrow=none;endArrow=block;exitX=0.5;exitY=1;entryX=0.5;entryY=0;rounded=0;" edge="1" parent="1" source="MiE3vX3wECgtqe4r-pBT-12" target="MiE3vX3wECgtqe4r-pBT-13">
          <mxGeometry relative="1" as="geometry">
            <Array as="points" />
          </mxGeometry>
        </mxCell>
        <mxCell id="MiE3vX3wECgtqe4r-pBT-32" value="" style="curved=1;startArrow=none;endArrow=block;exitX=0.5;exitY=1;entryX=0.5;entryY=0;rounded=0;" edge="1" parent="1" source="MiE3vX3wECgtqe4r-pBT-13" target="MiE3vX3wECgtqe4r-pBT-14">
          <mxGeometry relative="1" as="geometry">
            <Array as="points" />
          </mxGeometry>
        </mxCell>
        <mxCell id="MiE3vX3wECgtqe4r-pBT-33" value="Yes" style="curved=1;startArrow=none;endArrow=block;exitX=0.08;exitY=1;entryX=0.5;entryY=0;rounded=0;" edge="1" parent="1" source="MiE3vX3wECgtqe4r-pBT-14" target="MiE3vX3wECgtqe4r-pBT-15">
          <mxGeometry relative="1" as="geometry">
            <Array as="points">
              <mxPoint x="377" y="2109" />
            </Array>
          </mxGeometry>
        </mxCell>
        <mxCell id="MiE3vX3wECgtqe4r-pBT-34" value="No" style="curved=1;startArrow=none;endArrow=block;exitX=0.91;exitY=1;entryX=0.5;entryY=0;rounded=0;" edge="1" parent="1" source="MiE3vX3wECgtqe4r-pBT-14" target="MiE3vX3wECgtqe4r-pBT-16">
          <mxGeometry relative="1" as="geometry">
            <Array as="points">
              <mxPoint x="669" y="2109" />
            </Array>
          </mxGeometry>
        </mxCell>
        <mxCell id="MiE3vX3wECgtqe4r-pBT-35" value="" style="curved=1;startArrow=none;endArrow=block;exitX=0.5;exitY=1;entryX=0;entryY=0.2;rounded=0;" edge="1" parent="1" source="MiE3vX3wECgtqe4r-pBT-9" target="MiE3vX3wECgtqe4r-pBT-17">
          <mxGeometry relative="1" as="geometry">
            <Array as="points">
              <mxPoint x="150" y="2248" />
            </Array>
          </mxGeometry>
        </mxCell>
        <mxCell id="MiE3vX3wECgtqe4r-pBT-36" value="" style="curved=1;startArrow=none;endArrow=block;exitX=0.5;exitY=1;entryX=0.5;entryY=0;rounded=0;" edge="1" parent="1" source="MiE3vX3wECgtqe4r-pBT-15" target="MiE3vX3wECgtqe4r-pBT-17">
          <mxGeometry relative="1" as="geometry">
            <Array as="points" />
          </mxGeometry>
        </mxCell>
        <mxCell id="MiE3vX3wECgtqe4r-pBT-37" value="" style="curved=1;startArrow=none;endArrow=block;exitX=0.5;exitY=1;entryX=1;entryY=0.27;rounded=0;" edge="1" parent="1" source="MiE3vX3wECgtqe4r-pBT-16" target="MiE3vX3wECgtqe4r-pBT-17">
          <mxGeometry relative="1" as="geometry">
            <Array as="points">
              <mxPoint x="669" y="2248" />
            </Array>
          </mxGeometry>
        </mxCell>
      </root>
    </mxGraphModel>
  </diagram>
  <diagram id="esCgEU7ypEwuIy4499us" name="Page-4">
    <mxGraphModel dx="880" dy="572" grid="1" gridSize="10" guides="1" tooltips="1" connect="1" arrows="1" fold="1" page="1" pageScale="1" pageWidth="850" pageHeight="1100" math="0" shadow="0">
      <root>
        <mxCell id="0" />
        <mxCell id="1" parent="0" />
        <mxCell id="P3bKTCMHWso-K17DrZE_-1" value="User initiates chat" style="whiteSpace=wrap;strokeWidth=2;" vertex="1" parent="1">
          <mxGeometry x="464" y="20" width="192" height="54" as="geometry" />
        </mxCell>
        <mxCell id="P3bKTCMHWso-K17DrZE_-2" value="Chatbot asks for resume upload" style="whiteSpace=wrap;strokeWidth=2;" vertex="1" parent="1">
          <mxGeometry x="430" y="147" width="260" height="78" as="geometry" />
        </mxCell>
        <mxCell id="P3bKTCMHWso-K17DrZE_-3" value="Is the resume valid?" style="rhombus;strokeWidth=2;whiteSpace=wrap;" vertex="1" parent="1">
          <mxGeometry x="343" y="275" width="196" height="196" as="geometry" />
        </mxCell>
        <mxCell id="P3bKTCMHWso-K17DrZE_-4" value="Processing resume..." style="whiteSpace=wrap;strokeWidth=2;" vertex="1" parent="1">
          <mxGeometry x="314" y="556" width="209" height="54" as="geometry" />
        </mxCell>
        <mxCell id="P3bKTCMHWso-K17DrZE_-5" value="Invalid format or size, ask for re-upload" style="whiteSpace=wrap;strokeWidth=2;" vertex="1" parent="1">
          <mxGeometry x="572" y="544" width="260" height="78" as="geometry" />
        </mxCell>
        <mxCell id="P3bKTCMHWso-K17DrZE_-6" value="Extracting skills &amp; experience" style="whiteSpace=wrap;strokeWidth=2;" vertex="1" parent="1">
          <mxGeometry x="288" y="672" width="260" height="78" as="geometry" />
        </mxCell>
        <mxCell id="P3bKTCMHWso-K17DrZE_-7" value="Matching jobs found?" style="rhombus;strokeWidth=2;whiteSpace=wrap;" vertex="1" parent="1">
          <mxGeometry x="316" y="800" width="204" height="204" as="geometry" />
        </mxCell>
        <mxCell id="P3bKTCMHWso-K17DrZE_-8" value="Show matched jobs" style="whiteSpace=wrap;strokeWidth=2;" vertex="1" parent="1">
          <mxGeometry x="557" y="1077" width="199" height="54" as="geometry" />
        </mxCell>
        <mxCell id="P3bKTCMHWso-K17DrZE_-9" value="No matching jobs found, suggest improvements" style="whiteSpace=wrap;strokeWidth=2;" vertex="1" parent="1">
          <mxGeometry x="143" y="1538" width="260" height="78" as="geometry" />
        </mxCell>
        <mxCell id="P3bKTCMHWso-K17DrZE_-10" value="User selects a job" style="whiteSpace=wrap;strokeWidth=2;" vertex="1" parent="1">
          <mxGeometry x="563" y="1181" width="187" height="54" as="geometry" />
        </mxCell>
        <mxCell id="P3bKTCMHWso-K17DrZE_-11" value="Confirm to apply?" style="rhombus;strokeWidth=2;whiteSpace=wrap;" vertex="1" parent="1">
          <mxGeometry x="566" y="1285" width="180" height="180" as="geometry" />
        </mxCell>
        <mxCell id="P3bKTCMHWso-K17DrZE_-12" value="Application submitted" style="whiteSpace=wrap;strokeWidth=2;" vertex="1" parent="1">
          <mxGeometry x="570" y="1550" width="218" height="54" as="geometry" />
        </mxCell>
        <mxCell id="P3bKTCMHWso-K17DrZE_-13" value="Thank you! Application submitted" style="whiteSpace=wrap;strokeWidth=2;" vertex="1" parent="1">
          <mxGeometry x="549" y="1666" width="260" height="78" as="geometry" />
        </mxCell>
        <mxCell id="P3bKTCMHWso-K17DrZE_-14" value="Store data in database?" style="rhombus;strokeWidth=2;whiteSpace=wrap;" vertex="1" parent="1">
          <mxGeometry x="568" y="1794" width="222" height="222" as="geometry" />
        </mxCell>
        <mxCell id="P3bKTCMHWso-K17DrZE_-15" value="Show in Recruiter Dashboard" style="whiteSpace=wrap;strokeWidth=2;" vertex="1" parent="1">
          <mxGeometry x="20" y="2854" width="260" height="78" as="geometry" />
        </mxCell>
        <mxCell id="P3bKTCMHWso-K17DrZE_-16" value="End process" style="whiteSpace=wrap;strokeWidth=2;" vertex="1" parent="1">
          <mxGeometry x="538" y="2982" width="144" height="54" as="geometry" />
        </mxCell>
        <mxCell id="P3bKTCMHWso-K17DrZE_-17" value="What is the error?" style="rhombus;strokeWidth=2;whiteSpace=wrap;" vertex="1" parent="1">
          <mxGeometry x="528" y="2089" width="182" height="182" as="geometry" />
        </mxCell>
        <mxCell id="P3bKTCMHWso-K17DrZE_-18" value="Retry connection" style="whiteSpace=wrap;strokeWidth=2;" vertex="1" parent="1">
          <mxGeometry x="271" y="2471" width="182" height="54" as="geometry" />
        </mxCell>
        <mxCell id="P3bKTCMHWso-K17DrZE_-19" value="Connection restored?" style="rhombus;strokeWidth=2;whiteSpace=wrap;" vertex="1" parent="1">
          <mxGeometry x="561" y="2575" width="205" height="205" as="geometry" />
        </mxCell>
        <mxCell id="P3bKTCMHWso-K17DrZE_-20" value="Log error &amp; notify admin" style="whiteSpace=wrap;strokeWidth=2;" vertex="1" parent="1">
          <mxGeometry x="667" y="2866" width="237" height="54" as="geometry" />
        </mxCell>
        <mxCell id="P3bKTCMHWso-K17DrZE_-21" value="Retry insertion" style="whiteSpace=wrap;strokeWidth=2;" vertex="1" parent="1">
          <mxGeometry x="596" y="2471" width="166" height="54" as="geometry" />
        </mxCell>
        <mxCell id="P3bKTCMHWso-K17DrZE_-22" value="Retry after a short delay" style="whiteSpace=wrap;strokeWidth=2;" vertex="1" parent="1">
          <mxGeometry x="677" y="2344" width="236" height="54" as="geometry" />
        </mxCell>
        <mxCell id="P3bKTCMHWso-K17DrZE_-23" value="Hi" style="curved=1;startArrow=none;endArrow=block;exitX=0.5;exitY=1;entryX=0.5;entryY=0;rounded=0;" edge="1" parent="1" source="P3bKTCMHWso-K17DrZE_-1" target="P3bKTCMHWso-K17DrZE_-2">
          <mxGeometry relative="1" as="geometry">
            <Array as="points" />
          </mxGeometry>
        </mxCell>
        <mxCell id="P3bKTCMHWso-K17DrZE_-24" value="" style="curved=1;startArrow=none;endArrow=block;exitX=0.22;exitY=1;entryX=0.5;entryY=0;rounded=0;" edge="1" parent="1" source="P3bKTCMHWso-K17DrZE_-2" target="P3bKTCMHWso-K17DrZE_-3">
          <mxGeometry relative="1" as="geometry">
            <Array as="points">
              <mxPoint x="441" y="250" />
            </Array>
          </mxGeometry>
        </mxCell>
        <mxCell id="P3bKTCMHWso-K17DrZE_-25" value="Yes" style="curved=1;startArrow=none;endArrow=block;exitX=0.41;exitY=1;entryX=0.5;entryY=-0.01;rounded=0;" edge="1" parent="1" source="P3bKTCMHWso-K17DrZE_-3" target="P3bKTCMHWso-K17DrZE_-4">
          <mxGeometry relative="1" as="geometry">
            <Array as="points">
              <mxPoint x="418" y="507" />
            </Array>
          </mxGeometry>
        </mxCell>
        <mxCell id="P3bKTCMHWso-K17DrZE_-26" value="No" style="curved=1;startArrow=none;endArrow=block;exitX=1;exitY=0.97;entryX=0.26;entryY=0;rounded=0;" edge="1" parent="1" source="P3bKTCMHWso-K17DrZE_-3" target="P3bKTCMHWso-K17DrZE_-5">
          <mxGeometry relative="1" as="geometry">
            <Array as="points">
              <mxPoint x="583" y="507" />
            </Array>
          </mxGeometry>
        </mxCell>
        <mxCell id="P3bKTCMHWso-K17DrZE_-27" value="" style="curved=1;startArrow=none;endArrow=block;exitX=0.53;exitY=0;entryX=0.87;entryY=1;rounded=0;" edge="1" parent="1" source="P3bKTCMHWso-K17DrZE_-5" target="P3bKTCMHWso-K17DrZE_-2">
          <mxGeometry relative="1" as="geometry">
            <Array as="points">
              <mxPoint x="718" y="507" />
              <mxPoint x="718" y="250" />
            </Array>
          </mxGeometry>
        </mxCell>
        <mxCell id="P3bKTCMHWso-K17DrZE_-28" value="" style="curved=1;startArrow=none;endArrow=block;exitX=0.5;exitY=0.99;entryX=0.5;entryY=0;rounded=0;" edge="1" parent="1" source="P3bKTCMHWso-K17DrZE_-4" target="P3bKTCMHWso-K17DrZE_-6">
          <mxGeometry relative="1" as="geometry">
            <Array as="points" />
          </mxGeometry>
        </mxCell>
        <mxCell id="P3bKTCMHWso-K17DrZE_-29" value="" style="curved=1;startArrow=none;endArrow=block;exitX=0.5;exitY=1;entryX=0.5;entryY=0;rounded=0;" edge="1" parent="1" source="P3bKTCMHWso-K17DrZE_-6" target="P3bKTCMHWso-K17DrZE_-7">
          <mxGeometry relative="1" as="geometry">
            <Array as="points" />
          </mxGeometry>
        </mxCell>
        <mxCell id="P3bKTCMHWso-K17DrZE_-30" value="Yes" style="curved=1;startArrow=none;endArrow=block;exitX=1;exitY=0.79;entryX=0.5;entryY=0;rounded=0;" edge="1" parent="1" source="P3bKTCMHWso-K17DrZE_-7" target="P3bKTCMHWso-K17DrZE_-8">
          <mxGeometry relative="1" as="geometry">
            <Array as="points">
              <mxPoint x="656" y="1041" />
            </Array>
          </mxGeometry>
        </mxCell>
        <mxCell id="P3bKTCMHWso-K17DrZE_-31" value="No" style="curved=1;startArrow=none;endArrow=block;exitX=0;exitY=0.93;entryX=0.47;entryY=0;rounded=0;" edge="1" parent="1" source="P3bKTCMHWso-K17DrZE_-7" target="P3bKTCMHWso-K17DrZE_-9">
          <mxGeometry relative="1" as="geometry">
            <Array as="points">
              <mxPoint x="258" y="1041" />
              <mxPoint x="258" y="1502" />
            </Array>
          </mxGeometry>
        </mxCell>
        <mxCell id="P3bKTCMHWso-K17DrZE_-32" value="" style="curved=1;startArrow=none;endArrow=block;exitX=0.5;exitY=1;entryX=0.5;entryY=0;rounded=0;" edge="1" parent="1" source="P3bKTCMHWso-K17DrZE_-8" target="P3bKTCMHWso-K17DrZE_-10">
          <mxGeometry relative="1" as="geometry">
            <Array as="points" />
          </mxGeometry>
        </mxCell>
        <mxCell id="P3bKTCMHWso-K17DrZE_-33" value="" style="curved=1;startArrow=none;endArrow=block;exitX=0.5;exitY=1;entryX=0.5;entryY=0;rounded=0;" edge="1" parent="1" source="P3bKTCMHWso-K17DrZE_-10" target="P3bKTCMHWso-K17DrZE_-11">
          <mxGeometry relative="1" as="geometry">
            <Array as="points" />
          </mxGeometry>
        </mxCell>
        <mxCell id="P3bKTCMHWso-K17DrZE_-34" value="Yes" style="curved=1;startArrow=none;endArrow=block;exitX=0.59;exitY=1;entryX=0.5;entryY=0;rounded=0;" edge="1" parent="1" source="P3bKTCMHWso-K17DrZE_-11" target="P3bKTCMHWso-K17DrZE_-12">
          <mxGeometry relative="1" as="geometry">
            <Array as="points">
              <mxPoint x="679" y="1502" />
            </Array>
          </mxGeometry>
        </mxCell>
        <mxCell id="P3bKTCMHWso-K17DrZE_-35" value="No" style="curved=1;startArrow=none;endArrow=block;exitX=0;exitY=0.76;entryX=0.77;entryY=0;rounded=0;" edge="1" parent="1" source="P3bKTCMHWso-K17DrZE_-11" target="P3bKTCMHWso-K17DrZE_-9">
          <mxGeometry relative="1" as="geometry">
            <Array as="points">
              <mxPoint x="407" y="1502" />
            </Array>
          </mxGeometry>
        </mxCell>
        <mxCell id="P3bKTCMHWso-K17DrZE_-36" value="" style="curved=1;startArrow=none;endArrow=block;exitX=0.5;exitY=1;entryX=0.5;entryY=0;rounded=0;" edge="1" parent="1" source="P3bKTCMHWso-K17DrZE_-12" target="P3bKTCMHWso-K17DrZE_-13">
          <mxGeometry relative="1" as="geometry">
            <Array as="points" />
          </mxGeometry>
        </mxCell>
        <mxCell id="P3bKTCMHWso-K17DrZE_-37" value="" style="curved=1;startArrow=none;endArrow=block;exitX=0.5;exitY=1;entryX=0.5;entryY=0;rounded=0;" edge="1" parent="1" source="P3bKTCMHWso-K17DrZE_-13" target="P3bKTCMHWso-K17DrZE_-14">
          <mxGeometry relative="1" as="geometry">
            <Array as="points" />
          </mxGeometry>
        </mxCell>
        <mxCell id="P3bKTCMHWso-K17DrZE_-38" value="Success" style="curved=1;startArrow=none;endArrow=block;exitX=0;exitY=0.64;entryX=0.5;entryY=0;rounded=0;" edge="1" parent="1" source="P3bKTCMHWso-K17DrZE_-14" target="P3bKTCMHWso-K17DrZE_-15">
          <mxGeometry relative="1" as="geometry">
            <Array as="points">
              <mxPoint x="150" y="2053" />
            </Array>
          </mxGeometry>
        </mxCell>
        <mxCell id="P3bKTCMHWso-K17DrZE_-39" value="" style="curved=1;startArrow=none;endArrow=block;exitX=0.5;exitY=1;entryX=0;entryY=0.35;rounded=0;" edge="1" parent="1" source="P3bKTCMHWso-K17DrZE_-15" target="P3bKTCMHWso-K17DrZE_-16">
          <mxGeometry relative="1" as="geometry">
            <Array as="points">
              <mxPoint x="150" y="2957" />
            </Array>
          </mxGeometry>
        </mxCell>
        <mxCell id="P3bKTCMHWso-K17DrZE_-40" value="Failure" style="curved=1;startArrow=none;endArrow=block;exitX=0.3;exitY=1;entryX=0.5;entryY=0;rounded=0;" edge="1" parent="1" source="P3bKTCMHWso-K17DrZE_-14" target="P3bKTCMHWso-K17DrZE_-17">
          <mxGeometry relative="1" as="geometry">
            <Array as="points">
              <mxPoint x="619" y="2053" />
            </Array>
          </mxGeometry>
        </mxCell>
        <mxCell id="P3bKTCMHWso-K17DrZE_-41" value="Database Connection Failure" style="curved=1;startArrow=none;endArrow=block;exitX=0;exitY=0.75;entryX=0.5;entryY=0.01;rounded=0;" edge="1" parent="1" source="P3bKTCMHWso-K17DrZE_-17" target="P3bKTCMHWso-K17DrZE_-18">
          <mxGeometry relative="1" as="geometry">
            <Array as="points">
              <mxPoint x="362" y="2308" />
            </Array>
          </mxGeometry>
        </mxCell>
        <mxCell id="P3bKTCMHWso-K17DrZE_-42" value="" style="curved=1;startArrow=none;endArrow=block;exitX=0.5;exitY=1.01;entryX=0;entryY=0.29;rounded=0;" edge="1" parent="1" source="P3bKTCMHWso-K17DrZE_-18" target="P3bKTCMHWso-K17DrZE_-19">
          <mxGeometry relative="1" as="geometry">
            <Array as="points">
              <mxPoint x="362" y="2550" />
            </Array>
          </mxGeometry>
        </mxCell>
        <mxCell id="P3bKTCMHWso-K17DrZE_-43" value="Yes" style="curved=1;startArrow=none;endArrow=block;exitX=1;exitY=0.29;entryX=1;entryY=0.76;rounded=0;" edge="1" parent="1" source="P3bKTCMHWso-K17DrZE_-19" target="P3bKTCMHWso-K17DrZE_-14">
          <mxGeometry relative="1" as="geometry">
            <Array as="points">
              <mxPoint x="963" y="2550" />
              <mxPoint x="963" y="2053" />
            </Array>
          </mxGeometry>
        </mxCell>
        <mxCell id="P3bKTCMHWso-K17DrZE_-44" value="No" style="curved=1;startArrow=none;endArrow=block;exitX=0.5;exitY=1;entryX=0.32;entryY=0;rounded=0;" edge="1" parent="1" source="P3bKTCMHWso-K17DrZE_-19" target="P3bKTCMHWso-K17DrZE_-20">
          <mxGeometry relative="1" as="geometry">
            <Array as="points">
              <mxPoint x="664" y="2817" />
            </Array>
          </mxGeometry>
        </mxCell>
        <mxCell id="P3bKTCMHWso-K17DrZE_-45" value="" style="curved=1;startArrow=none;endArrow=block;exitX=0.5;exitY=1;entryX=1;entryY=0.1;rounded=0;" edge="1" parent="1" source="P3bKTCMHWso-K17DrZE_-20" target="P3bKTCMHWso-K17DrZE_-16">
          <mxGeometry relative="1" as="geometry">
            <Array as="points">
              <mxPoint x="785" y="2957" />
            </Array>
          </mxGeometry>
        </mxCell>
        <mxCell id="P3bKTCMHWso-K17DrZE_-46" value="Data Insertion Failure" style="curved=1;startArrow=none;endArrow=block;exitX=0.28;exitY=1;entryX=0.2;entryY=0.01;rounded=0;" edge="1" parent="1" source="P3bKTCMHWso-K17DrZE_-17" target="P3bKTCMHWso-K17DrZE_-21">
          <mxGeometry relative="1" as="geometry">
            <Array as="points">
              <mxPoint x="563" y="2308" />
              <mxPoint x="563" y="2435" />
            </Array>
          </mxGeometry>
        </mxCell>
        <mxCell id="P3bKTCMHWso-K17DrZE_-47" value="" style="curved=1;startArrow=none;endArrow=block;exitX=0.5;exitY=1.01;entryX=0.56;entryY=0;rounded=0;" edge="1" parent="1" source="P3bKTCMHWso-K17DrZE_-21" target="P3bKTCMHWso-K17DrZE_-19">
          <mxGeometry relative="1" as="geometry">
            <Array as="points">
              <mxPoint x="679" y="2550" />
            </Array>
          </mxGeometry>
        </mxCell>
        <mxCell id="P3bKTCMHWso-K17DrZE_-48" value="Timeout/Error" style="curved=1;startArrow=none;endArrow=block;exitX=1;exitY=0.86;entryX=0.5;entryY=0.01;rounded=0;" edge="1" parent="1" source="P3bKTCMHWso-K17DrZE_-17" target="P3bKTCMHWso-K17DrZE_-22">
          <mxGeometry relative="1" as="geometry">
            <Array as="points">
              <mxPoint x="795" y="2308" />
            </Array>
          </mxGeometry>
        </mxCell>
        <mxCell id="P3bKTCMHWso-K17DrZE_-49" value="" style="curved=1;startArrow=none;endArrow=block;exitX=0.5;exitY=1.01;entryX=0.8;entryY=0.01;rounded=0;" edge="1" parent="1" source="P3bKTCMHWso-K17DrZE_-22" target="P3bKTCMHWso-K17DrZE_-21">
          <mxGeometry relative="1" as="geometry">
            <Array as="points">
              <mxPoint x="795" y="2435" />
            </Array>
          </mxGeometry>
        </mxCell>
        <mxCell id="P3bKTCMHWso-K17DrZE_-50" value="Unknown Error" style="curved=1;startArrow=none;endArrow=block;exitX=1;exitY=0.64;entryX=0.93;entryY=0;rounded=0;" edge="1" parent="1" source="P3bKTCMHWso-K17DrZE_-17" target="P3bKTCMHWso-K17DrZE_-20">
          <mxGeometry relative="1" as="geometry">
            <Array as="points">
              <mxPoint x="1069" y="2308" />
              <mxPoint x="1069" y="2817" />
            </Array>
          </mxGeometry>
        </mxCell>
        <mxCell id="P3bKTCMHWso-K17DrZE_-51" value="User Starts Interaction" style="whiteSpace=wrap;strokeWidth=2;" vertex="1" parent="1">
          <mxGeometry x="605" y="3060" width="222" height="54" as="geometry" />
        </mxCell>
        <mxCell id="P3bKTCMHWso-K17DrZE_-52" value="Chatbot Requests Resume Upload" style="whiteSpace=wrap;strokeWidth=2;" vertex="1" parent="1">
          <mxGeometry x="586" y="3187" width="260" height="78" as="geometry" />
        </mxCell>
        <mxCell id="P3bKTCMHWso-K17DrZE_-53" value="Validate Resume Format &amp; Size" style="rhombus;strokeWidth=2;whiteSpace=wrap;" vertex="1" parent="1">
          <mxGeometry x="470" y="3315" width="278" height="278" as="geometry" />
        </mxCell>
        <mxCell id="P3bKTCMHWso-K17DrZE_-54" value="Process Resume Data" style="whiteSpace=wrap;strokeWidth=2;" vertex="1" parent="1">
          <mxGeometry x="471" y="3666" width="210" height="54" as="geometry" />
        </mxCell>
        <mxCell id="P3bKTCMHWso-K17DrZE_-55" value="Reject &amp; Ask for Re-upload" style="whiteSpace=wrap;strokeWidth=2;" vertex="1" parent="1">
          <mxGeometry x="731" y="3666" width="252" height="54" as="geometry" />
        </mxCell>
        <mxCell id="P3bKTCMHWso-K17DrZE_-56" value="Extract Skills &amp; Experience" style="whiteSpace=wrap;strokeWidth=2;" vertex="1" parent="1">
          <mxGeometry x="449" y="3770" width="253" height="54" as="geometry" />
        </mxCell>
        <mxCell id="P3bKTCMHWso-K17DrZE_-57" value="Matching Jobs Available?" style="rhombus;strokeWidth=2;whiteSpace=wrap;" vertex="1" parent="1">
          <mxGeometry x="461" y="3874" width="229" height="229" as="geometry" />
        </mxCell>
        <mxCell id="P3bKTCMHWso-K17DrZE_-58" value="Show Job Recommendations" style="whiteSpace=wrap;strokeWidth=2;" vertex="1" parent="1">
          <mxGeometry x="694" y="4176" width="260" height="78" as="geometry" />
        </mxCell>
        <mxCell id="P3bKTCMHWso-K17DrZE_-59" value="Suggest Resume Improvements" style="whiteSpace=wrap;strokeWidth=2;" vertex="1" parent="1">
          <mxGeometry x="307" y="4713" width="260" height="78" as="geometry" />
        </mxCell>
        <mxCell id="P3bKTCMHWso-K17DrZE_-60" value="User Selects a Job" style="whiteSpace=wrap;strokeWidth=2;" vertex="1" parent="1">
          <mxGeometry x="729" y="4304" width="190" height="54" as="geometry" />
        </mxCell>
        <mxCell id="P3bKTCMHWso-K17DrZE_-61" value="Confirm Job Application?" style="rhombus;strokeWidth=2;whiteSpace=wrap;" vertex="1" parent="1">
          <mxGeometry x="708" y="4408" width="232" height="232" as="geometry" />
        </mxCell>
        <mxCell id="P3bKTCMHWso-K17DrZE_-62" value="Submit Application" style="whiteSpace=wrap;strokeWidth=2;" vertex="1" parent="1">
          <mxGeometry x="750" y="4725" width="195" height="54" as="geometry" />
        </mxCell>
        <mxCell id="P3bKTCMHWso-K17DrZE_-63" value="Thank You! Application Submitted" style="whiteSpace=wrap;strokeWidth=2;" vertex="1" parent="1">
          <mxGeometry x="717" y="4841" width="260" height="78" as="geometry" />
        </mxCell>
        <mxCell id="P3bKTCMHWso-K17DrZE_-64" value="Store Application in Database" style="rhombus;strokeWidth=2;whiteSpace=wrap;" vertex="1" parent="1">
          <mxGeometry x="708" y="4969" width="278" height="278" as="geometry" />
        </mxCell>
        <mxCell id="P3bKTCMHWso-K17DrZE_-65" value="Update Recruiter Dashboard" style="whiteSpace=wrap;strokeWidth=2;" vertex="1" parent="1">
          <mxGeometry x="180" y="6125" width="260" height="78" as="geometry" />
        </mxCell>
        <mxCell id="P3bKTCMHWso-K17DrZE_-66" value="End Process" style="whiteSpace=wrap;strokeWidth=2;" vertex="1" parent="1">
          <mxGeometry x="707" y="6253" width="144" height="54" as="geometry" />
        </mxCell>
        <mxCell id="P3bKTCMHWso-K17DrZE_-67" value="Identify Database Error" style="rhombus;strokeWidth=2;whiteSpace=wrap;" vertex="1" parent="1">
          <mxGeometry x="677" y="5320" width="221" height="221" as="geometry" />
        </mxCell>
        <mxCell id="P3bKTCMHWso-K17DrZE_-68" value="Retry Connection" style="whiteSpace=wrap;strokeWidth=2;" vertex="1" parent="1">
          <mxGeometry x="431" y="5740" width="183" height="54" as="geometry" />
        </mxCell>
        <mxCell id="P3bKTCMHWso-K17DrZE_-69" value="Connection Restored?" style="rhombus;strokeWidth=2;whiteSpace=wrap;" vertex="1" parent="1">
          <mxGeometry x="734" y="5844" width="208" height="208" as="geometry" />
        </mxCell>
        <mxCell id="P3bKTCMHWso-K17DrZE_-70" value="Log Error &amp; Notify Admin" style="whiteSpace=wrap;strokeWidth=2;" vertex="1" parent="1">
          <mxGeometry x="854" y="6137" width="239" height="54" as="geometry" />
        </mxCell>
        <mxCell id="P3bKTCMHWso-K17DrZE_-71" value="Retry Data Insertion" style="whiteSpace=wrap;strokeWidth=2;" vertex="1" parent="1">
          <mxGeometry x="745" y="5740" width="203" height="54" as="geometry" />
        </mxCell>
        <mxCell id="P3bKTCMHWso-K17DrZE_-72" value="Retry After Short Delay" style="whiteSpace=wrap;strokeWidth=2;" vertex="1" parent="1">
          <mxGeometry x="848" y="5613" width="225" height="54" as="geometry" />
        </mxCell>
        <mxCell id="P3bKTCMHWso-K17DrZE_-73" value="Hi" style="curved=1;startArrow=none;endArrow=block;exitX=0.5;exitY=1;entryX=0.5;entryY=0;rounded=0;" edge="1" parent="1" source="P3bKTCMHWso-K17DrZE_-51" target="P3bKTCMHWso-K17DrZE_-52">
          <mxGeometry relative="1" as="geometry">
            <Array as="points" />
          </mxGeometry>
        </mxCell>
        <mxCell id="P3bKTCMHWso-K17DrZE_-74" value="" style="curved=1;startArrow=none;endArrow=block;exitX=0.25;exitY=1;entryX=0.5;entryY=0;rounded=0;" edge="1" parent="1" source="P3bKTCMHWso-K17DrZE_-52" target="P3bKTCMHWso-K17DrZE_-53">
          <mxGeometry relative="1" as="geometry">
            <Array as="points">
              <mxPoint x="609" y="3290" />
            </Array>
          </mxGeometry>
        </mxCell>
        <mxCell id="P3bKTCMHWso-K17DrZE_-75" value="Valid" style="curved=1;startArrow=none;endArrow=block;exitX=0.4;exitY=1;entryX=0.5;entryY=0;rounded=0;" edge="1" parent="1" source="P3bKTCMHWso-K17DrZE_-53" target="P3bKTCMHWso-K17DrZE_-54">
          <mxGeometry relative="1" as="geometry">
            <Array as="points">
              <mxPoint x="576" y="3630" />
            </Array>
          </mxGeometry>
        </mxCell>
        <mxCell id="P3bKTCMHWso-K17DrZE_-76" value="Invalid" style="curved=1;startArrow=none;endArrow=block;exitX=0.9;exitY=1;entryX=0.32;entryY=0;rounded=0;" edge="1" parent="1" source="P3bKTCMHWso-K17DrZE_-53" target="P3bKTCMHWso-K17DrZE_-55">
          <mxGeometry relative="1" as="geometry">
            <Array as="points">
              <mxPoint x="749" y="3630" />
            </Array>
          </mxGeometry>
        </mxCell>
        <mxCell id="P3bKTCMHWso-K17DrZE_-77" value="" style="curved=1;startArrow=none;endArrow=block;exitX=0.54;exitY=0;entryX=0.88;entryY=1;rounded=0;" edge="1" parent="1" source="P3bKTCMHWso-K17DrZE_-55" target="P3bKTCMHWso-K17DrZE_-52">
          <mxGeometry relative="1" as="geometry">
            <Array as="points">
              <mxPoint x="880" y="3630" />
              <mxPoint x="880" y="3290" />
            </Array>
          </mxGeometry>
        </mxCell>
        <mxCell id="P3bKTCMHWso-K17DrZE_-78" value="" style="curved=1;startArrow=none;endArrow=block;exitX=0.5;exitY=1;entryX=0.5;entryY=0;rounded=0;" edge="1" parent="1" source="P3bKTCMHWso-K17DrZE_-54" target="P3bKTCMHWso-K17DrZE_-56">
          <mxGeometry relative="1" as="geometry">
            <Array as="points" />
          </mxGeometry>
        </mxCell>
        <mxCell id="P3bKTCMHWso-K17DrZE_-79" value="" style="curved=1;startArrow=none;endArrow=block;exitX=0.5;exitY=1;entryX=0.5;entryY=0;rounded=0;" edge="1" parent="1" source="P3bKTCMHWso-K17DrZE_-56" target="P3bKTCMHWso-K17DrZE_-57">
          <mxGeometry relative="1" as="geometry">
            <Array as="points" />
          </mxGeometry>
        </mxCell>
        <mxCell id="P3bKTCMHWso-K17DrZE_-80" value="Yes" style="curved=1;startArrow=none;endArrow=block;exitX=1;exitY=0.8;entryX=0.5;entryY=0;rounded=0;" edge="1" parent="1" source="P3bKTCMHWso-K17DrZE_-57" target="P3bKTCMHWso-K17DrZE_-58">
          <mxGeometry relative="1" as="geometry">
            <Array as="points">
              <mxPoint x="824" y="4140" />
            </Array>
          </mxGeometry>
        </mxCell>
        <mxCell id="P3bKTCMHWso-K17DrZE_-81" value="No" style="curved=1;startArrow=none;endArrow=block;exitX=0;exitY=0.99;entryX=0.47;entryY=0;rounded=0;" edge="1" parent="1" source="P3bKTCMHWso-K17DrZE_-57" target="P3bKTCMHWso-K17DrZE_-59">
          <mxGeometry relative="1" as="geometry">
            <Array as="points">
              <mxPoint x="421" y="4140" />
              <mxPoint x="421" y="4676" />
            </Array>
          </mxGeometry>
        </mxCell>
        <mxCell id="P3bKTCMHWso-K17DrZE_-82" value="" style="curved=1;startArrow=none;endArrow=block;exitX=0.5;exitY=1;entryX=0.5;entryY=0;rounded=0;" edge="1" parent="1" source="P3bKTCMHWso-K17DrZE_-58" target="P3bKTCMHWso-K17DrZE_-60">
          <mxGeometry relative="1" as="geometry">
            <Array as="points" />
          </mxGeometry>
        </mxCell>
        <mxCell id="P3bKTCMHWso-K17DrZE_-83" value="" style="curved=1;startArrow=none;endArrow=block;exitX=0.5;exitY=1;entryX=0.5;entryY=0;rounded=0;" edge="1" parent="1" source="P3bKTCMHWso-K17DrZE_-60" target="P3bKTCMHWso-K17DrZE_-61">
          <mxGeometry relative="1" as="geometry">
            <Array as="points" />
          </mxGeometry>
        </mxCell>
        <mxCell id="P3bKTCMHWso-K17DrZE_-84" value="Yes" style="curved=1;startArrow=none;endArrow=block;exitX=0.58;exitY=1;entryX=0.5;entryY=0;rounded=0;" edge="1" parent="1" source="P3bKTCMHWso-K17DrZE_-61" target="P3bKTCMHWso-K17DrZE_-62">
          <mxGeometry relative="1" as="geometry">
            <Array as="points">
              <mxPoint x="847" y="4676" />
            </Array>
          </mxGeometry>
        </mxCell>
        <mxCell id="P3bKTCMHWso-K17DrZE_-85" value="No" style="curved=1;startArrow=none;endArrow=block;exitX=0;exitY=0.8;entryX=0.77;entryY=0;rounded=0;" edge="1" parent="1" source="P3bKTCMHWso-K17DrZE_-61" target="P3bKTCMHWso-K17DrZE_-59">
          <mxGeometry relative="1" as="geometry">
            <Array as="points">
              <mxPoint x="574" y="4676" />
            </Array>
          </mxGeometry>
        </mxCell>
        <mxCell id="P3bKTCMHWso-K17DrZE_-86" value="" style="curved=1;startArrow=none;endArrow=block;exitX=0.5;exitY=1;entryX=0.5;entryY=0;rounded=0;" edge="1" parent="1" source="P3bKTCMHWso-K17DrZE_-62" target="P3bKTCMHWso-K17DrZE_-63">
          <mxGeometry relative="1" as="geometry">
            <Array as="points" />
          </mxGeometry>
        </mxCell>
        <mxCell id="P3bKTCMHWso-K17DrZE_-87" value="" style="curved=1;startArrow=none;endArrow=block;exitX=0.5;exitY=1;entryX=0.5;entryY=0;rounded=0;" edge="1" parent="1" source="P3bKTCMHWso-K17DrZE_-63" target="P3bKTCMHWso-K17DrZE_-64">
          <mxGeometry relative="1" as="geometry">
            <Array as="points" />
          </mxGeometry>
        </mxCell>
        <mxCell id="P3bKTCMHWso-K17DrZE_-88" value="Success" style="curved=1;startArrow=none;endArrow=block;exitX=0;exitY=0.66;entryX=0.5;entryY=0;rounded=0;" edge="1" parent="1" source="P3bKTCMHWso-K17DrZE_-64" target="P3bKTCMHWso-K17DrZE_-65">
          <mxGeometry relative="1" as="geometry">
            <Array as="points">
              <mxPoint x="310" y="5283" />
            </Array>
          </mxGeometry>
        </mxCell>
        <mxCell id="P3bKTCMHWso-K17DrZE_-89" value="" style="curved=1;startArrow=none;endArrow=block;exitX=0.5;exitY=1;entryX=0;entryY=0.36;rounded=0;" edge="1" parent="1" source="P3bKTCMHWso-K17DrZE_-65" target="P3bKTCMHWso-K17DrZE_-66">
          <mxGeometry relative="1" as="geometry">
            <Array as="points">
              <mxPoint x="310" y="6228" />
            </Array>
          </mxGeometry>
        </mxCell>
        <mxCell id="P3bKTCMHWso-K17DrZE_-90" value="Failure" style="curved=1;startArrow=none;endArrow=block;exitX=0.33;exitY=1;entryX=0.5;entryY=0;rounded=0;" edge="1" parent="1" source="P3bKTCMHWso-K17DrZE_-64" target="P3bKTCMHWso-K17DrZE_-67">
          <mxGeometry relative="1" as="geometry">
            <Array as="points">
              <mxPoint x="787" y="5283" />
            </Array>
          </mxGeometry>
        </mxCell>
        <mxCell id="P3bKTCMHWso-K17DrZE_-91" value="Database Connection Failure" style="curved=1;startArrow=none;endArrow=block;exitX=0;exitY=0.78;entryX=0.5;entryY=0.01;rounded=0;" edge="1" parent="1" source="P3bKTCMHWso-K17DrZE_-67" target="P3bKTCMHWso-K17DrZE_-68">
          <mxGeometry relative="1" as="geometry">
            <Array as="points">
              <mxPoint x="523" y="5577" />
            </Array>
          </mxGeometry>
        </mxCell>
        <mxCell id="P3bKTCMHWso-K17DrZE_-92" value="" style="curved=1;startArrow=none;endArrow=block;exitX=0.5;exitY=1.01;entryX=0;entryY=0.3;rounded=0;" edge="1" parent="1" source="P3bKTCMHWso-K17DrZE_-68" target="P3bKTCMHWso-K17DrZE_-69">
          <mxGeometry relative="1" as="geometry">
            <Array as="points">
              <mxPoint x="523" y="5819" />
            </Array>
          </mxGeometry>
        </mxCell>
        <mxCell id="P3bKTCMHWso-K17DrZE_-93" value="Yes" style="curved=1;startArrow=none;endArrow=block;exitX=1;exitY=0.28;entryX=1;entryY=0.82;rounded=0;" edge="1" parent="1" source="P3bKTCMHWso-K17DrZE_-69" target="P3bKTCMHWso-K17DrZE_-64">
          <mxGeometry relative="1" as="geometry">
            <Array as="points">
              <mxPoint x="1122" y="5819" />
              <mxPoint x="1122" y="5283" />
            </Array>
          </mxGeometry>
        </mxCell>
        <mxCell id="P3bKTCMHWso-K17DrZE_-94" value="No" style="curved=1;startArrow=none;endArrow=block;exitX=0.5;exitY=1;entryX=0.3;entryY=0.01;rounded=0;" edge="1" parent="1" source="P3bKTCMHWso-K17DrZE_-69" target="P3bKTCMHWso-K17DrZE_-70">
          <mxGeometry relative="1" as="geometry">
            <Array as="points">
              <mxPoint x="837" y="6089" />
            </Array>
          </mxGeometry>
        </mxCell>
        <mxCell id="P3bKTCMHWso-K17DrZE_-95" value="" style="curved=1;startArrow=none;endArrow=block;exitX=0.5;exitY=1.01;entryX=1;entryY=0.15;rounded=0;" edge="1" parent="1" source="P3bKTCMHWso-K17DrZE_-70" target="P3bKTCMHWso-K17DrZE_-66">
          <mxGeometry relative="1" as="geometry">
            <Array as="points">
              <mxPoint x="974" y="6228" />
            </Array>
          </mxGeometry>
        </mxCell>
        <mxCell id="P3bKTCMHWso-K17DrZE_-96" value="Data Insertion Failure" style="curved=1;startArrow=none;endArrow=block;exitX=0.31;exitY=1;entryX=0.26;entryY=0.01;rounded=0;" edge="1" parent="1" source="P3bKTCMHWso-K17DrZE_-67" target="P3bKTCMHWso-K17DrZE_-71">
          <mxGeometry relative="1" as="geometry">
            <Array as="points">
              <mxPoint x="733" y="5577" />
              <mxPoint x="733" y="5704" />
            </Array>
          </mxGeometry>
        </mxCell>
        <mxCell id="P3bKTCMHWso-K17DrZE_-97" value="" style="curved=1;startArrow=none;endArrow=block;exitX=0.5;exitY=1.01;entryX=0.53;entryY=0;rounded=0;" edge="1" parent="1" source="P3bKTCMHWso-K17DrZE_-71" target="P3bKTCMHWso-K17DrZE_-69">
          <mxGeometry relative="1" as="geometry">
            <Array as="points">
              <mxPoint x="847" y="5819" />
            </Array>
          </mxGeometry>
        </mxCell>
        <mxCell id="P3bKTCMHWso-K17DrZE_-98" value="Transaction Timeout" style="curved=1;startArrow=none;endArrow=block;exitX=1;exitY=0.92;entryX=0.5;entryY=0.01;rounded=0;" edge="1" parent="1" source="P3bKTCMHWso-K17DrZE_-67" target="P3bKTCMHWso-K17DrZE_-72">
          <mxGeometry relative="1" as="geometry">
            <Array as="points">
              <mxPoint x="961" y="5577" />
            </Array>
          </mxGeometry>
        </mxCell>
        <mxCell id="P3bKTCMHWso-K17DrZE_-99" value="" style="curved=1;startArrow=none;endArrow=block;exitX=0.5;exitY=1.01;entryX=0.74;entryY=0.01;rounded=0;" edge="1" parent="1" source="P3bKTCMHWso-K17DrZE_-72" target="P3bKTCMHWso-K17DrZE_-71">
          <mxGeometry relative="1" as="geometry">
            <Array as="points">
              <mxPoint x="961" y="5704" />
            </Array>
          </mxGeometry>
        </mxCell>
        <mxCell id="P3bKTCMHWso-K17DrZE_-100" value="Unknown Database Error" style="curved=1;startArrow=none;endArrow=block;exitX=1;exitY=0.66;entryX=0.91;entryY=0.01;rounded=0;" edge="1" parent="1" source="P3bKTCMHWso-K17DrZE_-67" target="P3bKTCMHWso-K17DrZE_-70">
          <mxGeometry relative="1" as="geometry">
            <Array as="points">
              <mxPoint x="1247" y="5577" />
              <mxPoint x="1247" y="6089" />
            </Array>
          </mxGeometry>
        </mxCell>
      </root>
    </mxGraphModel>
  </diagram>
</mxfile>
